<?xml version="1.0" encoding="UTF-8" standalone="no"?>
<!-- Created with Inkscape (http://www.inkscape.org/) -->

<svg
   xmlns:dc="http://purl.org/dc/elements/1.1/"
   xmlns:cc="http://creativecommons.org/ns#"
   xmlns:rdf="http://www.w3.org/1999/02/22-rdf-syntax-ns#"
   xmlns:svg="http://www.w3.org/2000/svg"
   xmlns="http://www.w3.org/2000/svg"
   xmlns:sodipodi="http://sodipodi.sourceforge.net/DTD/sodipodi-0.dtd"
   xmlns:inkscape="http://www.inkscape.org/namespaces/inkscape"
   width="7.1960392"
   height="16"
   id="svg2"
   version="1.1"
   inkscape:version="0.48.3.1 r9886"
   sodipodi:docname="temp humi.svg">
  <defs
     id="defs4" />
  <sodipodi:namedview
     id="base"
     pagecolor="#ffffff"
     bordercolor="#666666"
     borderopacity="1.0"
     inkscape:pageopacity="0.0"
     inkscape:pageshadow="2"
     inkscape:zoom="2.8"
     inkscape:cx="132.38209"
     inkscape:cy="5.443552"
     inkscape:document-units="px"
     inkscape:current-layer="layer1"
     showgrid="false"
     inkscape:window-width="1871"
     inkscape:window-height="1056"
     inkscape:window-x="49"
     inkscape:window-y="24"
     inkscape:window-maximized="1"
     fit-margin-top="0"
     fit-margin-left="0"
     fit-margin-right="0"
     fit-margin-bottom="0" />
  <metadata
     id="metadata7">
    <rdf:RDF>
      <cc:Work
         rdf:about="">
        <dc:format>image/svg+xml</dc:format>
        <dc:type
           rdf:resource="http://purl.org/dc/dcmitype/StillImage" />
        <dc:title></dc:title>
      </cc:Work>
    </rdf:RDF>
  </metadata>
  <g
     inkscape:label="Calque 1"
     inkscape:groupmode="layer"
     id="layer1"
     transform="translate(-92.185196,-352.98969)">
    <path
       style="font-size:medium;font-style:normal;font-variant:normal;font-weight:normal;font-stretch:normal;text-indent:0;text-align:start;text-decoration:none;line-height:normal;letter-spacing:normal;word-spacing:normal;text-transform:none;direction:ltr;block-progression:tb;writing-mode:lr-tb;text-anchor:start;baseline-shift:baseline;color:#000000;fill:#2e3436;fill-opacity:1;stroke:none;stroke-width:3.95000005;marker:none;visibility:visible;display:inline;overflow:visible;enable-background:accumulate;font-family:Sans;-inkscape-font-specification:Sans"
       d="m 95.769378,352.98969 c -0.71411,6.3e-4 -1.411401,0.34599 -1.984158,0.9901 a 0.25032205,0.25032205 0 0 0 -0.06337,0.16634 l 0.0079,8.36831 c -0.931823,0.64415 -1.544554,1.70139 -1.544554,2.91089 0,1.96782 1.616348,3.56436 3.6,3.56436 1.983651,0 3.596039,-1.59691 3.596039,-3.56436 0,-1.20616 -0.603729,-2.26199 -1.532673,-2.90693 l 0.01584,-8.37227 a 0.25032205,0.25032205 0 0 0 -0.06733,-0.1703 c -0.604694,-0.64338 -1.313612,-0.98676 -2.027723,-0.98614 z m 0,0.49901 c 0.512339,-5.1e-4 1.039649,0.23291 1.536634,0.71287 -0.01482,0.016 -0.02687,0.0309 -0.04752,0.0515 -0.06442,0.0642 -0.157906,0.14935 -0.281188,0.23366 -0.246564,0.16862 -0.592847,0.3249 -1.025743,0.28515 a 0.25063392,0.25063392 0 1 0 -0.04752,0.49901 c 0.576095,0.0529 1.043658,-0.15973 1.354455,-0.37228 0.03727,-0.0255 0.07373,-0.0501 0.106931,-0.0752 l -0.004,1.15248 c -0.0028,0.004 -0.0018,0.006 -0.004,0.008 -0.0088,0.009 -0.01524,0.0144 -0.02376,0.0238 -0.01705,0.0188 -0.04304,0.0471 -0.07525,0.0792 -0.06442,0.0642 -0.157907,0.14935 -0.281188,0.23366 -0.246564,0.16862 -0.592847,0.32491 -1.025743,0.28515 a 0.25063424,0.25063424 0 0 0 -0.04753,0.49901 c 0.576095,0.0529 1.043659,-0.15973 1.354456,-0.37228 0.0357,-0.0244 0.07101,-0.0471 0.10297,-0.0713 l -0.004,1.15643 c -0.0088,0.009 -0.01524,0.0144 -0.02376,0.0238 -0.01705,0.0188 -0.04304,0.0471 -0.07525,0.0792 -0.05276,0.0526 -0.129616,0.12137 -0.221782,0.1901 l 0,0.5901 c 0.0808,-0.043 0.154984,-0.089 0.221782,-0.13465 0.03321,-0.0227 0.06507,-0.0448 0.09505,-0.0673 l 0,1.15644 c -0.0068,0.007 -0.0127,0.012 -0.0198,0.0198 -0.01705,0.0187 -0.04304,0.0471 -0.07525,0.0792 -0.05276,0.0525 -0.129616,0.12137 -0.221782,0.1901 l 0,0.59009 c 0.0808,-0.0428 0.154984,-0.089 0.221782,-0.13465 0.03229,-0.0221 0.06185,-0.0455 0.09109,-0.0673 l 0,1.1604 c -0.0051,0.005 -0.01015,0.01 -0.01584,0.0158 -0.01705,0.0188 -0.04304,0.0432 -0.07525,0.0752 -0.05341,0.0532 -0.128002,0.12351 -0.221782,0.19406 l 0,0.5901 c 0.0808,-0.0428 0.154984,-0.089 0.221782,-0.13466 0.03071,-0.021 0.05917,-0.0425 0.08713,-0.0634 l 0,0.4594 a 0.25032205,0.25032205 0 0 0 0.118812,0.20991 c 0.862324,0.54406 1.417821,1.49536 1.417821,2.58613 0,1.69466 -1.381075,3.06535 -3.097029,3.06535 -1.715954,0 -3.10099,-1.37105 -3.10099,-3.06535 0,-1.08937 0.566703,-2.04164 1.429703,-2.58613 a 0.25032205,0.25032205 0 0 0 0.114851,-0.20991 l -0.0079,-8.37623 c 0.483176,-0.51482 1.015947,-0.7639 1.548515,-0.76436 z m 1.267327,8.87921 c -0.295153,0.15621 -0.680397,0.2752 -1.132673,0.23366 a 0.25032205,0.25032205 0 1 1 0.04752,-0.49505 c 0.432896,0.0398 0.779179,-0.11653 1.025743,-0.28515 0.02107,-0.0144 0.04007,-0.029 0.05941,-0.0436 l 0,-1.24357 c -0.295153,0.15622 -0.680397,0.2752 -1.132673,0.23367 a 0.25032205,0.25032205 0 1 1 0.04752,-0.49505 c 0.432896,0.0398 0.779179,-0.11653 1.025743,-0.28515 0.02231,-0.0152 0.03905,-0.0284 0.05941,-0.0436 l 0,-1.24357 c -0.295153,0.15726 -0.680397,0.27916 -1.132673,0.23763 a 0.25063392,0.25063392 0 0 1 0.04752,-0.49901 c 0.432896,0.0397 0.779179,-0.11653 1.025743,-0.28515 0.02231,-0.0153 0.03905,-0.0284 0.05941,-0.0436 l 0,-0.0832 c 3.8e-4,-0.0931 -0.03926,-0.18562 -0.106931,-0.2495 -0.304694,-0.28808 -0.684342,-0.54984 -1.164356,-0.53861 -0.373045,0.009 -0.758894,0.18304 -1.152475,0.53069 -0.07249,0.0642 -0.115466,0.16056 -0.114852,0.25742 l 0,5.1406 c -0.764763,0.45743 -1.291089,1.27637 -1.291089,2.2297 0,1.4424 1.175422,2.61782 2.617822,2.61782 1.4424,0 2.617821,-1.17542 2.617821,-2.61782 0,-1.00086 -0.576888,-1.85318 -1.40594,-2.29307 l 0,-0.73663 z m -1.144555,1.46931 c 0.294134,0.003 0.586297,0.0431 0.819802,0.11881 0.07999,0.0259 -0.261895,0.70099 -0.859405,0.70891 -0.597512,0.008 -0.918705,-0.69182 -0.803961,-0.72475 0.252193,-0.0724 0.549431,-0.10638 0.843564,-0.10297 z"
       id="rect2998"
       inkscape:connector-curvature="0"
       inkscape:export-filename="/home/baptiste/Images/Projets/SmarTB/temperature.png"
       inkscape:export-xdpi="19.960396"
       inkscape:export-ydpi="19.960396" />
  </g>
</svg>
